<?xml version="1.0" encoding="UTF-8"?>
<svg id="Default" xmlns="http://www.w3.org/2000/svg" viewBox="0 0 234.27 92.55">
  <defs>
    <style>
      .cls-1 {
        fill: none;
        stroke: #67e0d7;
        stroke-linecap: round;
        stroke-linejoin: round;
        stroke-width: 2.15px;
      }
    </style>
  </defs>
  <path class="cls-1" d="m69.1,23.45c-2.54-2.54-5.49-4.64-8.72-6.21-3.44-1.67-7.14-2.72-10.94-3.09-3.8-.37-7.64-.07-11.34.9-3.48.91-6.78,2.39-9.76,4.39-2.99,2-5.62,4.48-7.79,7.34-2.31,3.04-4.06,6.47-5.17,10.13-1.11,3.66-1.56,7.48-1.33,11.29.21,3.59,1.02,7.11,2.4,10.43,1.38,3.32,3.29,6.39,5.68,9.07,2.54,2.86,5.56,5.24,8.93,7.04,3.37,1.8,7.03,2.99,10.82,3.51,3.56.49,7.18.38,10.7-.32s6.91-1.98,10.01-3.8c3.3-1.93,6.23-4.43,8.65-7.38,2.42-2.95,4.3-6.31,5.55-9.92,1.18-3.4,1.78-6.96,1.78-10.56,0-8.94,2.65-17.68,7.62-25.11,4.97-7.43,12.03-13.23,20.28-16.65,8.26-3.42,17.35-4.32,26.11-2.57,8.77,1.74,16.82,6.05,23.14,12.37"/>
  <path class="cls-1" d="m72.14,20.4c-2.88-2.88-6.22-5.26-9.88-7.04-3.89-1.89-8.09-3.08-12.4-3.5-4.31-.42-8.66-.08-12.85,1.02-3.94,1.03-7.68,2.71-11.07,4.97-3.39,2.26-6.37,5.07-8.83,8.32-2.62,3.45-4.6,7.34-5.85,11.48-1.26,4.14-1.77,8.48-1.51,12.8.24,4.07,1.16,8.06,2.72,11.82,1.56,3.76,3.73,7.24,6.44,10.28,2.87,3.24,6.3,5.94,10.12,7.98,3.82,2.04,7.97,3.39,12.26,3.98,4.04.56,8.13.43,12.13-.36,4-.79,7.83-2.25,11.34-4.31,3.74-2.19,7.06-5.02,9.8-8.37,2.75-3.35,4.88-7.15,6.29-11.25,1.33-3.85,2.01-7.89,2.01-11.97,0-8.09,2.4-15.99,6.89-22.72,4.49-6.72,10.88-11.97,18.35-15.06,7.47-3.09,15.69-3.9,23.63-2.33,7.93,1.58,15.22,5.47,20.94,11.19"/>
  <path class="cls-1" d="m75.19,17.36c-3.22-3.22-6.95-5.88-11.05-7.87-4.35-2.11-9.04-3.44-13.86-3.91s-9.68-.09-14.36,1.13c-4.41,1.15-8.58,3.03-12.37,5.56-3.79,2.53-7.12,5.67-9.87,9.3-2.92,3.86-5.14,8.2-6.54,12.83-1.4,4.63-1.98,9.47-1.69,14.3.27,4.55,1.3,9.01,3.04,13.22,1.74,4.21,4.17,8.09,7.19,11.49,3.21,3.62,7.04,6.64,11.31,8.92s8.91,3.79,13.7,4.45c4.51.62,9.09.48,13.56-.4s8.75-2.51,12.68-4.81c4.18-2.44,7.89-5.61,10.95-9.35,3.07-3.74,5.45-8,7.03-12.57,1.49-4.3,2.25-8.82,2.25-13.37,0-7.24,2.15-14.31,6.17-20.33,4.02-6.02,9.73-10.71,16.42-13.48,6.69-2.77,14.04-3.49,21.14-2.08,7.1,1.41,13.62,4.9,18.73,10.01"/>
  <path class="cls-1" d="m78.23,14.31c-3.56-3.56-7.68-6.5-12.21-8.69-4.81-2.34-10-3.8-15.32-4.33-5.32-.52-10.7-.1-15.87,1.25-4.87,1.27-9.49,3.35-13.67,6.15-4.18,2.8-7.87,6.27-10.91,10.28-3.23,4.26-5.68,9.06-7.23,14.18-1.55,5.12-2.18,10.47-1.87,15.81.3,5.02,1.43,9.96,3.36,14.61,1.93,4.65,4.61,8.94,7.95,12.7,3.55,4,7.78,7.34,12.5,9.86,4.72,2.52,9.84,4.19,15.14,4.91,4.99.69,10.05.54,14.98-.45,4.94-.98,9.67-2.78,14.01-5.32,4.62-2.7,8.72-6.2,12.11-10.33,3.39-4.13,6.03-8.84,7.77-13.89,1.65-4.76,2.49-9.75,2.49-14.78,0-6.38,1.89-12.63,5.44-17.94,3.55-5.31,8.59-9.45,14.49-11.89,5.9-2.44,12.39-3.08,18.65-1.84,6.26,1.25,12.01,4.32,16.53,8.84"/>
  <path class="cls-1" d="m94.1,59.04c2.94,6.83,8.14,12.43,14.73,15.86,6.59,3.44,14.16,4.49,21.44,2.99,7.28-1.5,13.82-5.46,18.51-11.22,4.69-5.76,7.26-12.96,7.26-20.39,0-8.94,2.65-17.68,7.62-25.11,4.97-7.43,12.03-13.23,20.28-16.65,8.26-3.42,17.35-4.32,26.11-2.57,8.77,1.74,16.82,6.05,23.14,12.37"/>
  <path class="cls-1" d="m90.04,69.41c4.94,7.2,12.05,12.63,20.3,15.49,8.25,2.87,17.19,3.02,25.53.43,8.34-2.59,15.63-7.77,20.81-14.8,5.18-7.03,7.97-15.53,7.97-24.26,0-7.24,2.15-14.31,6.17-20.33,4.02-6.02,9.73-10.71,16.42-13.48,6.69-2.77,14.04-3.49,21.14-2.08,7.1,1.41,13.62,4.9,18.73,10.01"/>
  <path class="cls-1" d="m92.19,64.77c4.06,6.93,10.29,12.33,17.73,15.37,7.44,3.04,15.67,3.54,23.42,1.44,7.75-2.1,14.6-6.7,19.48-13.08,4.88-6.38,7.52-14.19,7.52-22.23s2.4-15.99,6.89-22.72c4.49-6.72,10.88-11.97,18.35-15.06,7.47-3.09,15.69-3.9,23.63-2.33,7.93,1.58,15.22,5.47,20.94,11.19"/>
  <path class="cls-1" d="m87.64,73.46c5.7,7.57,13.64,13.16,22.69,15.98,9.05,2.81,18.76,2.71,27.75-.29,8.99-3.01,16.81-8.76,22.35-16.45,5.54-7.69,8.52-16.93,8.52-26.41,0-6.38,1.89-12.63,5.44-17.94,3.55-5.31,8.59-9.45,14.49-11.89,5.9-2.44,12.39-3.08,18.65-1.84,6.26,1.25,12.01,4.32,16.53,8.84"/>
  <path class="cls-1" d="m171.58,59.04c4.23,9.83,13.06,16.93,23.57,18.94,10.51,2.02,21.34-1.31,28.91-8.88"/>
  <path class="cls-1" d="m169.67,64.77c5.73,9.78,15.67,16.35,26.91,17.79,11.24,1.44,22.52-2.41,30.53-10.42"/>
  <path class="cls-1" d="m167.52,69.41c6.88,10.02,17.86,16.47,29.96,17.58s24.08-3.21,32.67-11.8"/>
  <path class="cls-1" d="m165.12,73.46c7.87,10.46,19.89,16.99,32.95,17.9,13.06.92,25.87-3.87,35.12-13.13"/>
</svg>