<?xml version="1.0" encoding="UTF-8"?>
<svg xmlns="http://www.w3.org/2000/svg">
  <symbol id="select-arrow" viewBox="0 0 24 24">
    <polyline points="19.07 8.46 12 15.54 4.93 8.46" fill="none" stroke-miterlimit="10" stroke-width="1px"/>
  </symbol>
  <symbol id="logo-square" viewBox="0 0 24 24" fill="none" stroke="#67E0D7" stroke-width="0.3" stroke-linecap="round">
    <path d="M7.07898 9.40236C6.81877 9.14215 6.51656 8.92701 6.18566 8.76617C5.83324 8.59508 5.45419 8.48752 5.0649 8.44961C4.6756 8.41171 4.28221 8.44244 3.90316 8.54181C3.54665 8.63504 3.20858 8.78666 2.90329 8.99155C2.59698 9.19644 2.32754 9.45051 2.10524 9.7435C1.86859 10.0549 1.6893 10.4063 1.57559 10.7813C1.46187 11.1562 1.41577 11.5476 1.43934 11.9379C1.46085 12.3057 1.54383 12.6663 1.68521 13.0064C1.82658 13.3465 2.02225 13.661 2.2671 13.9356C2.52731 14.2286 2.8367 14.4724 3.18194 14.6568C3.52718 14.8412 3.90214 14.9631 4.29041 15.0164C4.65511 15.0666 5.02597 15.0553 5.38658 14.9836C5.74719 14.9119 6.09448 14.7808 6.41206 14.5943C6.75013 14.3966 7.0503 14.1405 7.29822 13.8383C7.54614 13.536 7.73873 13.1918 7.86679 12.822C7.98768 12.4737 8.04915 12.109 8.04915 11.7402C8.04915 10.8243 8.32063 9.92893 8.82978 9.16776C9.33894 8.40658 10.0622 7.8124 10.9074 7.46203C11.7536 7.11167 12.6848 7.01947 13.5822 7.19875C14.4807 7.377 15.3054 7.81854 15.9528 8.466"/>
    <path d="M7.39042 9.0899C7.09538 8.79485 6.75321 8.55103 6.37825 8.36868C5.97974 8.17506 5.54947 8.05315 5.10793 8.01012C4.66638 7.96709 4.22074 8.00192 3.7915 8.11461C3.38786 8.22013 3.00471 8.39224 2.65742 8.62377C2.31013 8.8553 2.00484 9.14317 1.75282 9.47612C1.48441 9.82956 1.28157 10.2281 1.15351 10.6522C1.02443 11.0763 0.972185 11.5209 0.998821 11.9635C1.02341 12.3805 1.11766 12.7892 1.27747 13.1744C1.43729 13.5596 1.6596 13.9161 1.93723 14.2276C2.23124 14.5595 2.58263 14.8361 2.97398 15.0451C3.36532 15.2541 3.79047 15.3924 4.22996 15.4528C4.64385 15.5102 5.06285 15.4969 5.47263 15.4159C5.88242 15.335 6.27478 15.1854 6.63437 14.9744C7.01752 14.75 7.35764 14.4601 7.63834 14.1169C7.92007 13.7737 8.13827 13.3844 8.28272 12.9644C8.41898 12.57 8.48864 12.1561 8.48864 11.7381C8.48864 10.9093 8.73451 10.1 9.19449 9.41055C9.65447 8.72212 10.3091 8.18428 11.0744 7.86772C11.8396 7.55116 12.6818 7.46818 13.4952 7.62902C14.3076 7.79088 15.0544 8.1894 15.6404 8.77539"/>
    <path d="M7.70293 8.77847C7.37306 8.44859 6.99093 8.17609 6.5709 7.97222C6.12526 7.75606 5.64479 7.61981 5.151 7.57166C4.65721 7.52351 4.15933 7.56244 3.67988 7.68742C3.22809 7.80523 2.8009 7.99783 2.41263 8.25702C2.02436 8.51621 1.68321 8.83789 1.40148 9.20977C1.10234 9.60521 0.874912 10.0498 0.731488 10.5241C0.588064 10.9985 0.528645 11.4943 0.558355 11.9891C0.586015 12.4553 0.691534 12.9122 0.86979 13.3435C1.04805 13.7748 1.29699 14.1722 1.60638 14.5206C1.93523 14.8914 2.3276 15.2008 2.76504 15.4344C3.20248 15.668 3.67783 15.8226 4.16855 15.8903C4.63058 15.9538 5.09978 15.9394 5.55771 15.8493C6.01565 15.7591 6.45412 15.5921 6.85673 15.3565C7.28495 15.1066 7.66503 14.7818 7.97851 14.3987C8.29302 14.0155 8.53684 13.5791 8.69871 13.1109C8.85135 12.6704 8.92921 12.2073 8.92921 11.7412C8.92921 10.9995 9.14947 10.2752 9.5613 9.65848C9.97313 9.04175 10.5581 8.56128 11.2435 8.27751C11.9288 7.99373 12.6818 7.91997 13.4092 8.06442C14.1365 8.20887 14.8045 8.56641 15.328 9.0899"/>
    <path d="M8.01432 8.46602C7.64961 8.10131 7.22753 7.80012 6.76345 7.57576C6.27069 7.33604 5.739 7.18647 5.19398 7.13217C4.64897 7.0789 4.09781 7.12193 3.56817 7.26023C3.06926 7.39033 2.59595 7.60342 2.16773 7.89027C1.73951 8.17712 1.36148 8.53261 1.05005 8.94341C0.719146 9.37983 0.468154 9.87157 0.309362 10.3961C0.150571 10.9206 0.0860304 11.4687 0.117789 12.0158C0.148522 12.53 0.264286 13.0361 0.462007 13.5125C0.659727 13.9889 0.934283 14.4284 1.27645 14.8136C1.64013 15.2233 2.07348 15.5655 2.55703 15.8237C3.04057 16.0818 3.56509 16.2529 4.10806 16.3267C4.61926 16.3974 5.13764 16.382 5.6427 16.2806C6.14878 16.1802 6.63335 15.9958 7.07796 15.7356C7.55126 15.459 7.97129 15.1004 8.31858 14.6773C8.66587 14.2542 8.93633 13.7717 9.11459 13.2543C9.28362 12.7667 9.36968 12.2555 9.36968 11.7402C9.36968 11.0866 9.5633 10.4463 9.92698 9.90231C10.2907 9.35832 10.807 8.93419 11.4114 8.68423C12.0159 8.43426 12.6807 8.36869 13.322 8.49573C13.9634 8.62378 14.5524 8.93829 15.0155 9.40135"/>
    <path d="M9.64014 13.0484C9.94133 13.7481 10.474 14.3218 11.1492 14.6732C11.8243 15.0256 12.5998 15.1332 13.3456 14.9795C14.0914 14.8259 14.7614 14.4202 15.2419 13.8301C15.7223 13.24 15.9856 12.5024 15.9856 11.7412C15.9856 10.8253 16.2571 9.92997 16.7663 9.16879C17.2754 8.40762 17.9987 7.81343 18.8439 7.46307C19.6901 7.1127 20.6213 7.0205 21.5187 7.19978C22.4172 7.37804 23.2419 7.81958 23.8893 8.46704"/>
    <path d="M9.22424 14.1108C9.73033 14.8484 10.4587 15.4047 11.3039 15.6976C12.1491 15.9917 13.0649 16.007 13.9193 15.7417C14.7737 15.4764 15.5206 14.9457 16.0512 14.2255C16.5819 13.5053 16.8677 12.6345 16.8677 11.7402C16.8677 10.9985 17.088 10.2742 17.4998 9.65744C17.9117 9.04071 18.4966 8.56024 19.182 8.27647C19.8673 7.99269 20.6203 7.91893 21.3477 8.06338C22.0751 8.20783 22.743 8.56536 23.2665 9.08886"/>
    <path d="M9.44446 13.6354C9.86039 14.3454 10.4986 14.8986 11.2608 15.21C12.023 15.5214 12.8662 15.5727 13.6601 15.3575C14.4541 15.1424 15.1558 14.6711 15.6558 14.0175C16.1557 13.3639 16.4261 12.5638 16.4261 11.7402C16.4261 10.9165 16.672 10.1021 17.132 9.4126C17.592 8.72416 18.2466 8.18632 19.0119 7.86976C19.7772 7.5532 20.6193 7.47022 21.4327 7.63106C22.2451 7.79293 22.9919 8.19144 23.5779 8.77743"/>
    <path d="M8.97833 14.5257C9.56227 15.3012 10.3757 15.8739 11.3028 16.1628C12.23 16.4506 13.2247 16.4404 14.1457 16.1331C15.0667 15.8247 15.8678 15.2356 16.4354 14.4478C17.0029 13.66 17.3082 12.7134 17.3082 11.7422C17.3082 11.0886 17.5018 10.4483 17.8655 9.90435C18.2292 9.36036 18.7455 8.93624 19.35 8.68627C19.9544 8.4363 20.6193 8.37074 21.2606 8.49777C21.9019 8.62583 22.4909 8.94034 22.954 9.40339"/>
    <path d="M17.5776 13.0484C18.011 14.0554 18.9156 14.7828 19.9923 14.9887C21.069 15.1957 22.1785 14.8545 22.954 14.079"/>
    <path d="M17.382 13.6354C17.969 14.6373 18.9873 15.3104 20.1388 15.4579C21.2903 15.6054 22.4459 15.211 23.2665 14.3904"/>
    <path d="M17.1617 14.1108C17.8666 15.1373 18.9914 15.7981 20.231 15.9118C21.4706 16.0255 22.6979 15.5829 23.5779 14.7029"/>
    <path d="M16.9159 14.5257C17.7221 15.5972 18.9535 16.2662 20.2915 16.3594C21.6294 16.4537 22.9418 15.963 23.8894 15.0143"/>
  </symbol>
  <symbol id="logo-ccc" viewBox="0 0 150 60" fill="none" stroke="#67E0D7" stroke-linecap="round">
    <path d="M44.246 15.2043C42.6196 13.5576 40.7308 12.1962 38.6627 11.1784C36.4601 10.0957 34.091 9.415 31.6579 9.17513C29.2248 8.93526 26.7661 9.12975 24.3971 9.7586C22.1689 10.3485 20.0559 11.308 18.1479 12.6046C16.2334 13.9012 14.5495 15.509 13.16 17.3631C11.681 19.334 10.5605 21.5576 9.84976 23.9304C9.13904 26.3032 8.85091 28.7797 8.99817 31.2497C9.13263 33.5771 9.65127 35.8591 10.5349 38.0114C11.4185 40.1638 12.6414 42.1541 14.1717 43.8915C15.798 45.7456 17.7317 47.2886 19.8895 48.4555C22.0472 49.6225 24.3907 50.3939 26.8174 50.731C29.0968 51.0487 31.4146 50.9774 33.6684 50.5236C35.9222 50.0698 38.0928 49.24 40.0777 48.0601C42.1906 46.8088 44.0667 45.1881 45.6162 43.2756C47.1657 41.3631 48.3694 39.1849 49.1698 36.8445C49.9253 34.6403 50.3095 32.3323 50.3095 29.9985C50.3095 24.2027 52.0062 18.5366 55.1885 13.7197C58.3707 8.90284 62.8911 5.14271 68.1735 2.92553C73.4623 0.708355 79.2825 0.124886 84.8914 1.25941C90.5067 2.38745 95.661 5.18161 99.7076 9.27886"/>
    <path d="M46.1924 13.227C44.3484 11.3599 42.2098 9.81695 39.8664 8.66298C37.3757 7.4377 34.6865 6.66622 31.9268 6.39394C29.1672 6.12165 26.3819 6.34207 23.6991 7.0552C21.1764 7.72295 18.7817 8.81209 16.6112 10.2772C14.4406 11.7424 12.5325 13.5641 10.9574 15.6711C9.27988 17.9077 8.01211 20.4296 7.21175 23.1135C6.40499 25.7975 6.07844 28.6111 6.24492 31.4118C6.39859 34.0503 6.98765 36.637 7.9865 39.0747C8.98535 41.5123 10.3748 43.7683 12.1099 45.7392C13.9476 47.8396 16.1438 49.59 18.5896 50.9126C21.0355 52.2351 23.6927 53.1103 26.4396 53.4928C29.0263 53.8559 31.6451 53.7716 34.2062 53.2594C36.7674 52.7473 39.2197 51.8007 41.4671 50.4652C43.8618 49.0455 45.9875 47.2108 47.7419 45.039C49.5027 42.8672 50.8665 40.4037 51.7693 37.7456C52.6209 35.2497 53.0563 32.6306 53.0563 29.9855C53.0563 24.7408 54.593 19.6192 57.4679 15.2562C60.3428 10.8996 64.4342 7.49604 69.2171 5.4928C74.0001 3.48956 79.2632 2.96444 84.3471 3.98227C89.4246 5.00658 94.0923 7.52846 97.7547 11.2367"/>
    <path d="M48.1453 11.2562C46.0836 9.16864 43.6953 7.44416 41.0701 6.15405C38.2849 4.78614 35.2819 3.9239 32.1958 3.6192C29.1096 3.3145 25.9978 3.56086 23.0012 4.35178C20.1776 5.09732 17.5076 6.31613 15.0809 7.95632C12.6542 9.59651 10.522 11.6322 8.76126 13.9855C6.89162 16.4879 5.47019 19.3015 4.57378 22.3032C3.67738 25.3048 3.30602 28.4425 3.4917 31.5738C3.66458 34.5236 4.32407 37.415 5.43817 40.1443C6.55227 42.8737 8.10817 45.3891 10.0418 47.5933C12.0972 49.9401 14.5495 51.898 17.2835 53.3761C20.0175 54.8542 22.9884 55.8331 26.0554 56.261C28.9431 56.663 31.8756 56.5722 34.7377 56.0017C37.5998 55.4312 40.3402 54.3745 42.8565 52.8834C45.5329 51.3015 47.9084 49.2464 49.8677 46.8218C51.8334 44.3972 53.3572 41.6354 54.3689 38.6727C55.3229 35.885 55.8095 32.9547 55.8095 30.0049C55.8095 25.3113 57.1862 20.7278 59.7601 16.825C62.3341 12.9223 65.9901 9.88176 70.2736 8.08598C74.5571 6.29019 79.2632 5.82342 83.8093 6.73752C88.3553 7.65162 92.53 9.91418 95.8018 13.227"/>
    <path d="M50.0918 9.27885C47.8124 6.9709 45.1744 5.06491 42.2739 3.64513C39.1941 2.12812 35.871 1.1816 32.4647 0.838002C29.0584 0.500887 25.6136 0.773173 22.3033 1.64838C19.1851 2.47171 16.227 3.82017 13.5506 5.63541C10.8742 7.45064 8.51157 9.70024 6.56509 12.2999C4.49697 15.0617 2.92826 18.1735 1.93582 21.4928C0.943375 24.8121 0.539994 28.2805 0.738483 31.7424C0.930569 34.9968 1.65409 38.1994 2.88985 41.214C4.1256 44.2286 5.84157 47.0098 7.98013 49.4474C10.2531 52.0406 12.9616 54.2059 15.9837 55.8396C19.0059 57.4733 22.2841 58.556 25.6777 59.0228C28.8727 59.4701 32.1125 59.3728 35.2692 58.731C38.4322 58.0957 41.4607 56.9288 44.2396 55.2821C47.1977 53.5317 49.8229 51.2626 51.9934 48.5852C54.164 45.9077 55.8544 42.8542 56.9685 39.5803C58.0249 36.4944 58.5628 33.2594 58.5628 29.9985C58.5628 25.8623 59.7729 21.8104 62.046 18.368C64.319 14.9255 67.546 12.2416 71.3237 10.6597C75.1014 9.07787 79.2569 8.66296 83.2651 9.46685C87.2733 10.2772 90.9549 12.2675 93.849 15.1978"/>
    <path d="M60.2531 38.2772C62.1356 42.7051 65.465 46.3356 69.6845 48.5592C73.904 50.7894 78.751 51.4701 83.4123 50.4976C88.0736 49.5252 92.2611 46.9579 95.264 43.2237C98.2669 39.4895 99.9125 34.8218 99.9125 30.0049C99.9125 24.2092 101.609 18.543 104.791 13.7262C107.974 8.90931 112.494 5.14918 117.776 2.932C123.065 0.714824 128.885 0.131356 134.494 1.26588C140.11 2.39392 145.264 5.18808 149.311 9.28533"/>
    <path d="M57.6536 45.0001C60.8166 49.6678 65.369 53.1881 70.6514 55.0422C75.9338 56.9028 81.6579 57.0001 86.9979 55.321C92.3379 53.6419 97.0056 50.2837 100.322 45.7262C103.639 41.1686 105.425 35.6581 105.425 29.9985C105.425 25.3048 106.802 20.7213 109.376 16.8185C111.95 12.9158 115.606 9.87528 119.889 8.07949C124.173 6.2837 128.879 5.81693 133.425 6.73103C137.971 7.64513 142.146 9.90769 145.418 13.2205"/>
    <path d="M59.0302 41.992C61.6298 46.4847 65.6188 49.9855 70.3825 51.9563C75.1462 53.9272 80.4158 54.2513 85.378 52.8899C90.3402 51.5285 94.7262 48.5463 97.8508 44.4101C100.975 40.274 102.666 35.2108 102.666 29.9985C102.666 24.7862 104.202 19.6322 107.077 15.2691C109.952 10.9126 114.044 7.50901 118.827 5.50577C123.61 3.50253 128.873 2.97741 133.957 3.99524C139.034 5.01955 143.702 7.54143 147.364 11.2497"/>
    <path d="M56.1169 47.6257C59.7665 52.5333 64.8504 56.1573 70.645 57.9855C76.4396 59.8072 82.6568 59.7424 88.413 57.7975C94.1691 55.8461 99.1762 52.1184 102.723 47.133C106.271 42.1476 108.179 36.1573 108.179 30.0114C108.179 25.8753 109.389 21.8234 111.662 18.381C113.935 14.9385 117.162 12.2546 120.94 10.6727C124.717 9.09086 128.873 8.67595 132.881 9.47984C136.889 10.2902 140.571 12.2805 143.465 15.2108"/>
    <path d="M109.863 38.2772C112.571 44.65 118.225 49.2529 124.954 50.556C131.684 51.8656 138.618 49.7067 143.465 44.7991"/>
    <path d="M108.64 41.992C112.308 48.3323 118.673 52.5917 125.87 53.5252C133.067 54.4587 140.289 51.9628 145.418 46.7699"/>
    <path d="M107.263 45.0001C111.668 51.496 118.699 55.6776 126.446 56.3972C134.193 57.1168 141.864 54.3161 147.364 48.7473"/>
    <path d="M105.726 47.6257C110.765 54.4069 118.462 58.6403 126.824 59.2302C135.186 59.8267 143.388 56.7213 149.311 50.7181"/>
  </symbol>
</svg>